<svg width="28" height="28" viewBox="0 0 28 28" fill="none" xmlns="http://www.w3.org/2000/svg">
<path d="M16.1605 1.32663C17.6771 1.47977 18.7827 2.84021 18.6302 4.36496C18.4777 5.88971 17.1249 7.00142 15.6085 6.84809C14.0922 6.69476 12.9866 5.33451 13.1391 3.80977C13.2914 2.28502 14.6443 1.17331 16.1605 1.32663Z" fill="white"/>
<path d="M12.1727 6.72022C12.2806 5.64177 11.4984 4.67959 10.4261 4.57112C9.35356 4.46264 8.39648 5.24917 8.28879 6.32762C8.18091 7.40607 8.96293 8.36825 10.0355 8.47653C11.108 8.58501 12.0649 7.79867 12.1727 6.72022Z" fill="white"/>
<path d="M8.02037 21.6962L10.6767 20.1403C10.8211 20.0558 11.0066 20.1109 11.0814 20.2616C11.6677 21.4417 12.6332 22.2158 14.3059 22.2158C16.0402 22.2158 16.4739 21.5242 16.4739 20.9016C16.4739 19.9103 15.5611 19.5184 13.1651 18.8497C10.7916 18.181 8.4642 17.0283 8.4642 13.9388C8.4642 10.8262 11.0656 9.02797 13.8268 9.02797C16.3569 9.02797 18.3567 10.2066 19.54 12.4195C19.6141 12.5582 19.565 12.732 19.4301 12.8116L16.8531 14.3353C16.7116 14.4191 16.5298 14.3674 16.4512 14.2219C15.9142 13.2287 15.1694 12.6247 13.8268 12.6247C12.6858 12.6247 12.1151 13.201 12.1151 13.8466C12.1151 14.5844 12.5032 15.0917 14.9905 15.8524C17.4093 16.5902 20.125 17.4433 20.125 20.8556C20.125 23.968 17.6604 25.8125 14.1918 25.8125C10.9518 25.8125 8.84019 24.3069 7.89794 22.0644C7.84069 21.9283 7.89397 21.7704 8.02037 21.6962Z" fill="white"/>
</svg>
